<mxfile host="Electron" modified="2025-03-29T20:56:40.224Z" agent="Mozilla/5.0 (X11; Linux x86_64) AppleWebKit/537.36 (KHTML, like Gecko) draw.io/24.6.4 Chrome/124.0.6367.207 Electron/30.0.6 Safari/537.36" etag="fCVqahrPzAq-aRSUKDOx" version="24.6.4" type="device">
  <diagram name="Страница — 1" id="gCJK9PJFnHuZDmFV2Bn0">
    <mxGraphModel dx="909" dy="562" grid="1" gridSize="10" guides="1" tooltips="1" connect="1" arrows="1" fold="1" page="1" pageScale="1" pageWidth="1027" pageHeight="1169" math="0" shadow="0">
      <root>
        <mxCell id="0" />
        <mxCell id="1" parent="0" />
        <mxCell id="OdAXWkqqtVKeN6IxXQtU-1" value="Выдача прав на проект" style="swimlane;html=1;childLayout=stackLayout;resizeParent=1;resizeParentMax=0;horizontal=0;startSize=20;horizontalStack=0;whiteSpace=wrap;" vertex="1" parent="1">
          <mxGeometry x="110" y="430" width="710" height="290" as="geometry" />
        </mxCell>
        <mxCell id="OdAXWkqqtVKeN6IxXQtU-2" value="Владелец проекта" style="swimlane;html=1;startSize=20;horizontal=0;" vertex="1" parent="OdAXWkqqtVKeN6IxXQtU-1">
          <mxGeometry x="20" width="690" height="290" as="geometry" />
        </mxCell>
        <mxCell id="OdAXWkqqtVKeN6IxXQtU-3" value="" style="points=[[0.145,0.145,0],[0.5,0,0],[0.855,0.145,0],[1,0.5,0],[0.855,0.855,0],[0.5,1,0],[0.145,0.855,0],[0,0.5,0]];shape=mxgraph.bpmn.event;html=1;verticalLabelPosition=bottom;labelBackgroundColor=#ffffff;verticalAlign=top;align=center;perimeter=ellipsePerimeter;outlineConnect=0;aspect=fixed;outline=standard;symbol=message;" vertex="1" parent="OdAXWkqqtVKeN6IxXQtU-2">
          <mxGeometry x="65" y="170" width="50" height="50" as="geometry" />
        </mxCell>
        <mxCell id="OdAXWkqqtVKeN6IxXQtU-4" value="Запрос на получение&lt;br&gt;прав в проекте" style="text;html=1;align=center;verticalAlign=middle;resizable=0;points=[];autosize=1;strokeColor=none;fillColor=none;" vertex="1" parent="OdAXWkqqtVKeN6IxXQtU-2">
          <mxGeometry x="20" y="220" width="140" height="40" as="geometry" />
        </mxCell>
        <mxCell id="OdAXWkqqtVKeN6IxXQtU-5" style="edgeStyle=orthogonalEdgeStyle;rounded=0;orthogonalLoop=1;jettySize=auto;html=1;" edge="1" parent="OdAXWkqqtVKeN6IxXQtU-2" source="OdAXWkqqtVKeN6IxXQtU-6" target="OdAXWkqqtVKeN6IxXQtU-11">
          <mxGeometry relative="1" as="geometry">
            <Array as="points">
              <mxPoint x="200" y="195" />
              <mxPoint x="200" y="180" />
            </Array>
          </mxGeometry>
        </mxCell>
        <mxCell id="OdAXWkqqtVKeN6IxXQtU-6" value="" style="points=[[0.25,0.25,0],[0.5,0,0],[0.75,0.25,0],[1,0.5,0],[0.75,0.75,0],[0.5,1,0],[0.25,0.75,0],[0,0.5,0]];shape=mxgraph.bpmn.gateway2;html=1;verticalLabelPosition=bottom;labelBackgroundColor=#ffffff;verticalAlign=top;align=center;perimeter=rhombusPerimeter;outlineConnect=0;outline=none;symbol=none;gwType=exclusive;" vertex="1" parent="OdAXWkqqtVKeN6IxXQtU-2">
          <mxGeometry x="140" y="170" width="50" height="50" as="geometry" />
        </mxCell>
        <mxCell id="OdAXWkqqtVKeN6IxXQtU-7" value="" style="points=[[0.145,0.145,0],[0.5,0,0],[0.855,0.145,0],[1,0.5,0],[0.855,0.855,0],[0.5,1,0],[0.145,0.855,0],[0,0.5,0]];shape=mxgraph.bpmn.event;html=1;verticalLabelPosition=bottom;labelBackgroundColor=#ffffff;verticalAlign=top;align=center;perimeter=ellipsePerimeter;outlineConnect=0;aspect=fixed;outline=end;symbol=cancel;" vertex="1" parent="OdAXWkqqtVKeN6IxXQtU-2">
          <mxGeometry x="250" y="230" width="50" height="50" as="geometry" />
        </mxCell>
        <mxCell id="OdAXWkqqtVKeN6IxXQtU-8" style="edgeStyle=orthogonalEdgeStyle;rounded=0;orthogonalLoop=1;jettySize=auto;html=1;entryX=0;entryY=0.5;entryDx=0;entryDy=0;entryPerimeter=0;" edge="1" parent="OdAXWkqqtVKeN6IxXQtU-2" source="OdAXWkqqtVKeN6IxXQtU-6" target="OdAXWkqqtVKeN6IxXQtU-7">
          <mxGeometry relative="1" as="geometry">
            <Array as="points">
              <mxPoint x="165" y="255" />
            </Array>
          </mxGeometry>
        </mxCell>
        <mxCell id="OdAXWkqqtVKeN6IxXQtU-9" style="edgeStyle=orthogonalEdgeStyle;rounded=0;orthogonalLoop=1;jettySize=auto;html=1;entryX=0;entryY=0.5;entryDx=0;entryDy=0;entryPerimeter=0;" edge="1" parent="OdAXWkqqtVKeN6IxXQtU-2" source="OdAXWkqqtVKeN6IxXQtU-3" target="OdAXWkqqtVKeN6IxXQtU-6">
          <mxGeometry relative="1" as="geometry" />
        </mxCell>
        <mxCell id="OdAXWkqqtVKeN6IxXQtU-10" style="edgeStyle=orthogonalEdgeStyle;rounded=0;orthogonalLoop=1;jettySize=auto;html=1;" edge="1" parent="OdAXWkqqtVKeN6IxXQtU-2" source="OdAXWkqqtVKeN6IxXQtU-11" target="OdAXWkqqtVKeN6IxXQtU-13">
          <mxGeometry relative="1" as="geometry" />
        </mxCell>
        <mxCell id="OdAXWkqqtVKeN6IxXQtU-11" value="Сформировать область доступа студента к проекту" style="points=[[0.25,0,0],[0.5,0,0],[0.75,0,0],[1,0.25,0],[1,0.5,0],[1,0.75,0],[0.75,1,0],[0.5,1,0],[0.25,1,0],[0,0.75,0],[0,0.5,0],[0,0.25,0]];shape=mxgraph.bpmn.task;whiteSpace=wrap;rectStyle=rounded;size=10;html=1;container=1;expand=0;collapsible=0;taskMarker=abstract;" vertex="1" parent="OdAXWkqqtVKeN6IxXQtU-2">
          <mxGeometry x="215" y="140" width="120" height="80" as="geometry" />
        </mxCell>
        <mxCell id="OdAXWkqqtVKeN6IxXQtU-12" style="edgeStyle=orthogonalEdgeStyle;rounded=0;orthogonalLoop=1;jettySize=auto;html=1;" edge="1" parent="OdAXWkqqtVKeN6IxXQtU-2" source="OdAXWkqqtVKeN6IxXQtU-13" target="OdAXWkqqtVKeN6IxXQtU-15">
          <mxGeometry relative="1" as="geometry" />
        </mxCell>
        <mxCell id="OdAXWkqqtVKeN6IxXQtU-13" value="Сформировать список прав студента в доступной части проекта" style="points=[[0.25,0,0],[0.5,0,0],[0.75,0,0],[1,0.25,0],[1,0.5,0],[1,0.75,0],[0.75,1,0],[0.5,1,0],[0.25,1,0],[0,0.75,0],[0,0.5,0],[0,0.25,0]];shape=mxgraph.bpmn.task;whiteSpace=wrap;rectStyle=rounded;size=10;html=1;container=1;expand=0;collapsible=0;taskMarker=abstract;" vertex="1" parent="OdAXWkqqtVKeN6IxXQtU-2">
          <mxGeometry x="350" y="140" width="120" height="80" as="geometry" />
        </mxCell>
        <mxCell id="OdAXWkqqtVKeN6IxXQtU-14" style="edgeStyle=orthogonalEdgeStyle;rounded=0;orthogonalLoop=1;jettySize=auto;html=1;" edge="1" parent="OdAXWkqqtVKeN6IxXQtU-2" source="OdAXWkqqtVKeN6IxXQtU-15" target="OdAXWkqqtVKeN6IxXQtU-16">
          <mxGeometry relative="1" as="geometry" />
        </mxCell>
        <mxCell id="OdAXWkqqtVKeN6IxXQtU-15" value="Отправить сообщение об успешной выдаче прав" style="points=[[0.25,0,0],[0.5,0,0],[0.75,0,0],[1,0.25,0],[1,0.5,0],[1,0.75,0],[0.75,1,0],[0.5,1,0],[0.25,1,0],[0,0.75,0],[0,0.5,0],[0,0.25,0]];shape=mxgraph.bpmn.task;whiteSpace=wrap;rectStyle=rounded;size=10;html=1;container=1;expand=0;collapsible=0;taskMarker=abstract;" vertex="1" parent="OdAXWkqqtVKeN6IxXQtU-2">
          <mxGeometry x="490" y="140" width="120" height="80" as="geometry" />
        </mxCell>
        <mxCell id="OdAXWkqqtVKeN6IxXQtU-16" value="" style="points=[[0.145,0.145,0],[0.5,0,0],[0.855,0.145,0],[1,0.5,0],[0.855,0.855,0],[0.5,1,0],[0.145,0.855,0],[0,0.5,0]];shape=mxgraph.bpmn.event;html=1;verticalLabelPosition=bottom;labelBackgroundColor=#ffffff;verticalAlign=top;align=center;perimeter=ellipsePerimeter;outlineConnect=0;aspect=fixed;outline=end;symbol=terminate2;" vertex="1" parent="OdAXWkqqtVKeN6IxXQtU-2">
          <mxGeometry x="630" y="155" width="50" height="50" as="geometry" />
        </mxCell>
        <mxCell id="OdAXWkqqtVKeN6IxXQtU-17" value="" style="swimlane;html=1;startSize=20;fontStyle=0;collapsible=0;horizontal=0;swimlaneLine=0;fillColor=none;whiteSpace=wrap;" vertex="1" parent="1">
          <mxGeometry x="110" y="400" width="710" height="30" as="geometry" />
        </mxCell>
        <mxCell id="OdAXWkqqtVKeN6IxXQtU-18" value="Пользователь" style="text;html=1;align=center;verticalAlign=middle;resizable=0;points=[];autosize=1;strokeColor=none;fillColor=none;" vertex="1" parent="OdAXWkqqtVKeN6IxXQtU-17">
          <mxGeometry x="315" width="100" height="30" as="geometry" />
        </mxCell>
        <mxCell id="OdAXWkqqtVKeN6IxXQtU-19" value="" style="endArrow=none;dashed=1;html=1;rounded=0;exitX=0.5;exitY=0;exitDx=0;exitDy=0;exitPerimeter=0;startArrow=classic;startFill=1;" edge="1" parent="1" source="OdAXWkqqtVKeN6IxXQtU-3">
          <mxGeometry width="50" height="50" relative="1" as="geometry">
            <mxPoint x="460" y="760" as="sourcePoint" />
            <mxPoint x="220" y="430" as="targetPoint" />
          </mxGeometry>
        </mxCell>
        <mxCell id="OdAXWkqqtVKeN6IxXQtU-20" value="Запрос отклонен" style="text;html=1;align=center;verticalAlign=middle;resizable=0;points=[];autosize=1;strokeColor=none;fillColor=none;" vertex="1" parent="1">
          <mxGeometry x="250" y="688" width="120" height="30" as="geometry" />
        </mxCell>
        <mxCell id="OdAXWkqqtVKeN6IxXQtU-21" value="" style="endArrow=none;dashed=1;html=1;rounded=0;startArrow=classic;startFill=1;entryX=0.5;entryY=0;entryDx=0;entryDy=0;entryPerimeter=0;" edge="1" parent="1" target="OdAXWkqqtVKeN6IxXQtU-15">
          <mxGeometry width="50" height="50" relative="1" as="geometry">
            <mxPoint x="680" y="430" as="sourcePoint" />
            <mxPoint x="215" y="440" as="targetPoint" />
          </mxGeometry>
        </mxCell>
      </root>
    </mxGraphModel>
  </diagram>
</mxfile>
